<svg width="148" height="146" viewBox="0 0 148 146" fill="none" xmlns="http://www.w3.org/2000/svg">
<g opacity="0.5">
<path d="M88 2C54.8629 2 28 28.8629 28 62V62.09C28 95.2271 54.7729 122 87.91 122H88C121.137 122 148 95.2271 148 62.09V62C148 28.8629 121.227 2 88.09 2H88Z" fill="#A8C5E5"/>
</g>
<g filter="url(#filter0_dd_205_19)">
<path d="M72 2C38.8629 2 12 28.8629 12 62V62.09C12 95.2271 38.7729 122 71.91 122H72C105.137 122 132 95.2271 132 62.09V62C132 28.8629 105.227 2 72.09 2H72Z" fill="#79A8D4"/>
</g>
<defs>
<filter id="filter0_dd_205_19" x="0" y="0" width="144" height="144" filterUnits="userSpaceOnUse" color-interpolation-filters="sRGB">
<feFlood flood-opacity="0" result="BackgroundImageFix"/>
<feColorMatrix in="SourceAlpha" type="matrix" values="0 0 0 0 0 0 0 0 0 0 0 0 0 0 0 0 0 0 127 0" result="hardAlpha"/>
<feMorphology radius="4" operator="erode" in="SourceAlpha" result="effect1_dropShadow_205_19"/>
<feOffset dy="4"/>
<feGaussianBlur stdDeviation="3"/>
<feComposite in2="hardAlpha" operator="out"/>
<feColorMatrix type="matrix" values="0 0 0 0 0 0 0 0 0 0 0 0 0 0 0 0 0 0 0.1 0"/>
<feBlend mode="normal" in2="BackgroundImageFix" result="effect1_dropShadow_205_19"/>
<feColorMatrix in="SourceAlpha" type="matrix" values="0 0 0 0 0 0 0 0 0 0 0 0 0 0 0 0 0 0 127 0" result="hardAlpha"/>
<feMorphology radius="3" operator="erode" in="SourceAlpha" result="effect2_dropShadow_205_19"/>
<feOffset dy="10"/>
<feGaussianBlur stdDeviation="7.5"/>
<feComposite in2="hardAlpha" operator="out"/>
<feColorMatrix type="matrix" values="0 0 0 0 0 0 0 0 0 0 0 0 0 0 0 0 0 0 0.1 0"/>
<feBlend mode="normal" in2="effect1_dropShadow_205_19" result="effect2_dropShadow_205_19"/>
<feBlend mode="normal" in="SourceGraphic" in2="effect2_dropShadow_205_19" result="shape"/>
</filter>
</defs>
</svg>
