<svg width="40" height="40" viewBox="0 0 40 40" fill="none" xmlns="http://www.w3.org/2000/svg">
<path d="M20 0C8.9543 0 0 8.9543 0 20V20.03C0 31.0757 8.92431 40 19.97 40H20C31.0457 40 40 31.0757 40 20.03V20C40 8.9543 31.0757 0 20.03 0H20Z" fill="#79A8D4" fill-opacity="0.1"/>
<g clip-path="url(#clip0_205_568)">
<path d="M15.625 18.125C14.9336 18.125 14.375 18.6836 14.375 19.375C14.375 20.0664 14.9336 20.625 15.625 20.625C16.3164 20.625 16.875 20.0664 16.875 19.375C16.875 18.6836 16.3164 18.125 15.625 18.125ZM20 18.125C19.3086 18.125 18.75 18.6836 18.75 19.375C18.75 20.0664 19.3086 20.625 20 20.625C20.6914 20.625 21.25 20.0664 21.25 19.375C21.25 18.6836 20.6914 18.125 20 18.125ZM24.375 18.125C23.6836 18.125 23.125 18.6836 23.125 19.375C23.125 20.0664 23.6836 20.625 24.375 20.625C25.0664 20.625 25.625 20.0664 25.625 19.375C25.625 18.6836 25.0664 18.125 24.375 18.125ZM20 11.25C14.4766 11.25 10 14.8867 10 19.375C10 21.2344 10.7774 22.9375 12.0664 24.3086C11.4844 25.8477 10.2735 27.1523 10.2539 27.168C9.99612 27.4414 9.92581 27.8398 10.0742 28.1836C10.2227 28.5273 10.5625 28.75 10.9375 28.75C13.3399 28.75 15.2344 27.7461 16.3711 26.9414C17.5 27.2969 18.7188 27.5 20 27.5C25.5235 27.5 30 23.8633 30 19.375C30 14.8867 25.5235 11.25 20 11.25ZM20 25.625C18.9571 25.625 17.9258 25.4648 16.9375 25.1523L16.0508 24.8711L15.2891 25.4102C14.7305 25.8047 13.9649 26.2461 13.043 26.543C13.3282 26.0703 13.6055 25.5391 13.8203 24.9727L14.2344 23.875L13.4297 23.0234C12.7227 22.2695 11.875 21.0234 11.875 19.375C11.875 15.9297 15.5196 13.125 20 13.125C24.4805 13.125 28.125 15.9297 28.125 19.375C28.125 22.8203 24.4805 25.625 20 25.625Z" fill="#79A8D4"/>
</g>
<defs>
<clipPath id="clip0_205_568">
<rect width="20" height="20" fill="white" transform="translate(10 10)"/>
</clipPath>
</defs>
</svg>
