<svg width="14" height="14" viewBox="0 0 14 14" fill="none" xmlns="http://www.w3.org/2000/svg">
<path d="M6.99992 0.333336C3.31992 0.333336 0.333252 3.32 0.333252 7C0.333252 10.68 3.31992 13.6667 6.99992 13.6667C10.6799 13.6667 13.6666 10.68 13.6666 7C13.6666 3.32 10.6799 0.333336 6.99992 0.333336ZM7.66659 11.6667H6.33325V10.3333H7.66659V11.6667ZM9.04659 6.5L8.44659 7.11334C7.96659 7.6 7.66659 8 7.66659 9H6.33325V8.66667C6.33325 7.93334 6.63325 7.26667 7.11325 6.78L7.93992 5.94C8.18658 5.7 8.33325 5.36667 8.33325 5C8.33325 4.26667 7.73325 3.66667 6.99992 3.66667C6.26659 3.66667 5.66659 4.26667 5.66659 5H4.33325C4.33325 3.52667 5.52659 2.33334 6.99992 2.33334C8.47325 2.33334 9.66659 3.52667 9.66659 5C9.66659 5.58667 9.42659 6.12 9.04659 6.5Z" fill="#2E2E2E"/>
</svg>
