<svg width="17" height="16" viewBox="0 0 17 16" fill="none" xmlns="http://www.w3.org/2000/svg">
<path d="M8.5 1.75C5.05375 1.75 2.25 4.55375 2.25 8C2.25 11.4462 5.05375 14.25 8.5 14.25C11.9462 14.25 14.75 11.4462 14.75 8C14.75 4.55375 11.9462 1.75 8.5 1.75ZM8.5 4.3125C8.72437 4.3125 8.91587 4.39183 9.07452 4.55048C9.23317 4.70913 9.3125 4.90063 9.3125 5.125C9.3125 5.34937 9.23317 5.54087 9.07452 5.69952C8.91587 5.85817 8.72437 5.9375 8.5 5.9375C8.27563 5.9375 8.08413 5.85817 7.92548 5.69952C7.76682 5.54087 7.6875 5.34937 7.6875 5.125C7.6875 4.90063 7.76683 4.70913 7.92548 4.55048C8.08413 4.39183 8.27563 4.3125 8.5 4.3125ZM10 11.375H7.25C7.11193 11.375 6.99408 11.3262 6.89645 11.2286C6.79882 11.1309 6.75 11.0131 6.75 10.875C6.75 10.7369 6.79882 10.6191 6.89645 10.5214C6.99408 10.4238 7.11193 10.375 7.25 10.375H8.125V7.625H7.625C7.48693 7.625 7.36908 7.57618 7.27145 7.47855C7.17382 7.38092 7.125 7.26307 7.125 7.125C7.125 6.98693 7.17382 6.86908 7.27145 6.77145C7.36908 6.67382 7.48693 6.625 7.625 6.625H8.625C8.76307 6.625 8.88092 6.67382 8.97855 6.77145C9.07618 6.86908 9.125 6.98693 9.125 7.125V10.375H10C10.1381 10.375 10.2559 10.4238 10.3536 10.5214C10.4512 10.6191 10.5 10.7369 10.5 10.875C10.5 11.0131 10.4512 11.1309 10.3536 11.2286C10.2559 11.3262 10.1381 11.375 10 11.375Z" fill="#6E6E6E"/>
</svg>
