<svg width="120" height="120" viewBox="0 0 120 120" fill="none" xmlns="http://www.w3.org/2000/svg">
<path d="M60 0C26.8629 0 0 26.8629 0 60V60.09C0 93.2271 26.7729 120 59.91 120H60C93.1371 120 120 93.2271 120 60.09V60C120 26.8629 93.2271 0 60.09 0H60Z" fill="#79A8D4"/>
<path d="M60 45C50.067 45 42 53.067 42 63C42 72.933 50.067 81 60 81C69.933 81 78 72.933 78 63C78 53.067 69.933 45 60 45ZM60 75C51.716 75 45 68.284 45 60C45 51.716 51.716 45 60 45C68.284 45 75 51.716 75 60C75 68.284 68.284 75 60 75Z" fill="white"/>
<path d="M60 55C56.134 55 53 58.134 53 62C53 65.866 56.134 69 60 69C63.866 69 67 65.866 67 62C67 58.134 63.866 55 60 55ZM60 67C57.239 67 55 64.761 55 62C55 59.239 57.239 57 60 57C62.761 57 65 59.239 65 62C65 64.761 62.761 67 60 67Z" fill="white"/>
</svg>
