<svg width="17" height="16" viewBox="0 0 17 16" fill="none" xmlns="http://www.w3.org/2000/svg">
<g clip-path="url(#clip0_402_1083)">
<circle cx="3.10929" cy="6.33333" r="1.66667" fill="#2E2E2E"/>
<circle cx="6.10929" cy="3.66667" r="1.66667" fill="#2E2E2E"/>
<circle cx="10.1093" cy="3.66667" r="1.66667" fill="#2E2E2E"/>
<circle cx="13.1093" cy="6.33333" r="1.66667" fill="#2E2E2E"/>
<path d="M11.6694 9.90667C11.0894 9.22667 10.6027 8.64667 10.0161 7.96667C9.70939 7.60667 9.31606 7.24667 8.84939 7.08667C8.77606 7.06 8.70272 7.04 8.62939 7.02667C8.46272 7 8.28272 7 8.10939 7C7.93606 7 7.75606 7 7.58272 7.03333C7.50939 7.04667 7.43606 7.06667 7.36272 7.09333C6.89606 7.25333 6.50939 7.61333 6.19606 7.97333C5.61606 8.65333 5.12939 9.23333 4.54272 9.91333C3.66939 10.7867 2.59606 11.7533 2.79606 13.1067C2.98939 13.7867 3.47606 14.46 4.34939 14.6533C4.83606 14.7533 6.38939 14.36 8.04272 14.36H8.16272C9.81606 14.36 11.3694 14.7467 11.8561 14.6533C12.7294 14.46 13.2161 13.78 13.4094 13.1067C13.6161 11.7467 12.5427 10.78 11.6694 9.90667Z" fill="#2E2E2E"/>
</g>
<defs>
<clipPath id="clip0_402_1083">
<rect width="16" height="16" fill="white" transform="translate(0.109375)"/>
</clipPath>
</defs>
</svg>
