<svg width="40" height="40" viewBox="0 0 40 40" fill="none" xmlns="http://www.w3.org/2000/svg">
<path d="M20 0C8.9543 0 0 8.9543 0 20V20.03C0 31.0757 8.92431 40 19.97 40H20C31.0457 40 40 31.0757 40 20.03V20C40 8.9543 31.0757 0 20.03 0H20Z" fill="#79A8D4" fill-opacity="0.1"/>
<path d="M29.1667 14.0741H13.8889C13.1647 14.0741 12.5471 14.487 12.3178 15.0617H10.8333C10.3731 15.0617 10 15.3934 10 15.8025V24.1975C10 25.1521 10.8706 25.9259 11.9444 25.9259H29.1667C29.6269 25.9259 30 25.5943 30 25.1852V14.8148C30 14.4057 29.6269 14.0741 29.1667 14.0741ZM11.6667 24.1975V16.5432H12.2222V24.1975C12.2222 24.3337 12.0976 24.4445 11.9444 24.4445C11.7913 24.4445 11.6667 24.3337 11.6667 24.1975ZM28.3333 24.4445H13.8688C13.8818 24.3638 13.8889 24.2814 13.8889 24.1975V15.5556H28.3333V24.4445ZM15.9722 20.7408H20.6944C20.9245 20.7408 21.1111 20.5749 21.1111 20.3704V17.4074C21.1111 17.2029 20.9245 17.0371 20.6944 17.0371H15.9722C15.7421 17.0371 15.5556 17.2029 15.5556 17.4074V20.3704C15.5556 20.5749 15.7421 20.7408 15.9722 20.7408ZM16.9444 18.2716H19.7222V19.5062H16.9444V18.2716ZM15.5556 22.5926V21.8519C15.5556 21.6473 15.7421 21.4815 15.9722 21.4815H20.6944C20.9245 21.4815 21.1111 21.6473 21.1111 21.8519V22.5926C21.1111 22.7971 20.9245 22.963 20.6944 22.963H15.9722C15.7421 22.963 15.5556 22.7971 15.5556 22.5926ZM22.2222 22.5926V21.8519C22.2222 21.6473 22.4088 21.4815 22.6389 21.4815H26.25C26.4801 21.4815 26.6667 21.6473 26.6667 21.8519V22.5926C26.6667 22.7971 26.4801 22.963 26.25 22.963H22.6389C22.4088 22.963 22.2222 22.7971 22.2222 22.5926ZM22.2222 18.1482V17.4074C22.2222 17.2029 22.4088 17.0371 22.6389 17.0371H26.25C26.4801 17.0371 26.6667 17.2029 26.6667 17.4074V18.1482C26.6667 18.3527 26.4801 18.5185 26.25 18.5185H22.6389C22.4088 18.5185 22.2222 18.3527 22.2222 18.1482ZM22.2222 20.3704V19.6296C22.2222 19.4251 22.4088 19.2593 22.6389 19.2593H26.25C26.4801 19.2593 26.6667 19.4251 26.6667 19.6296V20.3704C26.6667 20.5749 26.4801 20.7408 26.25 20.7408H22.6389C22.4088 20.7408 22.2222 20.5749 22.2222 20.3704Z" fill="#79A8D4"/>
</svg>
