<svg width="20" height="21" viewBox="0 0 20 21" fill="none" xmlns="http://www.w3.org/2000/svg">
<path d="M17.8395 16.9605L14.1641 13.2852C14.6065 12.6962 14.9441 12.0522 15.177 11.3533C15.4098 10.6544 15.5258 9.93666 15.525 9.2C15.525 5.43672 12.4633 2.375 8.7 2.375C4.93672 2.375 1.875 5.43672 1.875 9.2C1.875 12.9633 4.93672 16.025 8.7 16.025C9.43666 16.0258 10.1544 15.9098 10.8533 15.677C11.5522 15.4441 12.1962 15.1065 12.7852 14.6641L16.4605 18.3395C16.6537 18.5121 16.8797 18.5948 17.1387 18.5876C17.3977 18.5803 17.6187 18.4851 17.8019 18.3019C17.9851 18.1187 18.0803 17.8977 18.0876 17.6387C18.0948 17.3797 18.0121 17.1537 17.8395 16.9605ZM3.825 9.2C3.825 7.85381 4.30095 6.70476 5.25285 5.75285C6.20476 4.80095 7.3538 4.325 8.7 4.325C10.0462 4.325 11.1952 4.80095 12.1471 5.75285C13.099 6.70476 13.575 7.8538 13.575 9.2C13.575 10.5462 13.099 11.6952 12.1471 12.6471C11.1952 13.599 10.0462 14.075 8.7 14.075C7.35448 14.0734 6.206 13.5969 5.25457 12.6454C4.30314 11.694 3.82661 10.5455 3.825 9.2Z" fill="#79A8D4"/>
</svg>
