<svg width="342" height="32" viewBox="0 0 342 32" fill="none" xmlns="http://www.w3.org/2000/svg">
<path d="M34.5555 11.5V2.77246H37.6053C38.2127 2.77246 38.7137 2.87695 39.1082 3.08594C39.5047 3.29492 39.7996 3.5752 39.993 3.92676C40.1863 4.27637 40.283 4.66406 40.283 5.08984C40.283 5.46484 40.2166 5.77539 40.0838 6.02148C39.951 6.26563 39.7771 6.45898 39.5623 6.60156C39.3494 6.74219 39.118 6.84668 38.868 6.91504V7C39.1336 7.01758 39.4012 7.11133 39.6707 7.28125C39.9422 7.45117 40.1687 7.69531 40.3504 8.01367C40.532 8.33203 40.6228 8.72168 40.6228 9.18262C40.6228 9.62012 40.5232 10.0137 40.324 10.3633C40.1248 10.7129 39.8103 10.9902 39.3807 11.1953C38.9529 11.3984 38.3953 11.5 37.7078 11.5H34.5555ZM35.6102 10.5625H37.7078C38.3992 10.5625 38.8904 10.4287 39.1814 10.1611C39.4725 9.8916 39.618 9.56543 39.618 9.18262C39.618 8.88574 39.5428 8.6123 39.3924 8.3623C39.242 8.11035 39.0271 7.9082 38.7478 7.75586C38.4686 7.60352 38.1395 7.52734 37.7605 7.52734H35.6102V10.5625ZM35.6102 6.60742H37.573C37.8895 6.60742 38.1766 6.54492 38.4344 6.41992C38.6922 6.29492 38.8963 6.11914 39.0467 5.89258C39.199 5.66406 39.2752 5.39648 39.2752 5.08984C39.2752 4.70703 39.1414 4.38184 38.8738 4.11426C38.6082 3.84473 38.1853 3.70996 37.6053 3.70996H35.6102V6.60742ZM42.8719 13.9551C42.7019 13.9551 42.5496 13.9414 42.4148 13.9141C42.282 13.8867 42.1902 13.8604 42.1394 13.835L42.3943 12.9502C42.6385 13.0127 42.8543 13.0352 43.0418 13.0176C43.2293 13 43.3963 12.916 43.5428 12.7656C43.6892 12.6172 43.824 12.377 43.9471 12.0449L44.1346 11.5352L41.7146 4.95508H42.8045L44.6121 10.1699H44.6795L46.4871 4.95508H47.5769L44.7996 12.4551C44.6746 12.793 44.5193 13.0732 44.3338 13.2959C44.1502 13.5186 43.9363 13.6836 43.6922 13.791C43.45 13.9004 43.1765 13.9551 42.8719 13.9551ZM56.9187 6.41992L56.0134 6.6748C55.9567 6.52441 55.8737 6.37793 55.7644 6.23535C55.655 6.09082 55.5065 5.97168 55.319 5.87793C55.1315 5.78418 54.8913 5.7373 54.5983 5.7373C54.198 5.7373 53.8649 5.8291 53.5993 6.0127C53.3337 6.19629 53.2009 6.42871 53.2009 6.70996C53.2009 6.95996 53.2917 7.15723 53.4733 7.30176C53.6569 7.44629 53.9411 7.56738 54.3259 7.66504L55.2985 7.90234C55.8845 8.04492 56.32 8.26172 56.6052 8.55273C56.8923 8.84375 57.0358 9.21777 57.0358 9.6748C57.0358 10.0498 56.9284 10.3857 56.7136 10.6826C56.5007 10.9775 56.2019 11.2109 55.8171 11.3828C55.4343 11.5527 54.989 11.6377 54.4812 11.6377C53.8132 11.6377 53.2605 11.4932 52.823 11.2041C52.3855 10.9131 52.1081 10.4893 51.9909 9.93262L52.946 9.69238C53.0378 10.0459 53.2106 10.3105 53.4646 10.4863C53.7185 10.6621 54.0515 10.75 54.4636 10.75C54.9323 10.75 55.3054 10.6504 55.5827 10.4512C55.8601 10.25 55.9987 10.0088 55.9987 9.72754C55.9987 9.50098 55.9187 9.31055 55.7585 9.15625C55.6003 9 55.3562 8.88379 55.0261 8.80762L53.9362 8.5498C53.3366 8.40918 52.8962 8.18945 52.6149 7.89062C52.3356 7.58984 52.196 7.21387 52.196 6.7627C52.196 6.3916 52.3005 6.06445 52.5095 5.78125C52.7185 5.49805 53.0036 5.27539 53.3649 5.11328C53.7282 4.95117 54.1394 4.87012 54.5983 4.87012C55.2468 4.87012 55.7565 5.0127 56.1276 5.29785C56.4987 5.58105 56.7624 5.95508 56.9187 6.41992ZM58.5535 11.5V4.95508H59.5584V11.5H58.5535ZM59.0662 3.8623C58.869 3.8623 58.7 3.7959 58.5594 3.66309C58.4188 3.53027 58.3484 3.37012 58.3484 3.18262C58.3484 2.99512 58.4188 2.83496 58.5594 2.70215C58.7 2.56738 58.869 2.5 59.0662 2.5C59.2615 2.5 59.4295 2.56738 59.5701 2.70215C59.7108 2.83496 59.7811 2.99512 59.7811 3.18262C59.7811 3.37012 59.7108 3.53027 59.5701 3.66309C59.4295 3.7959 59.2615 3.8623 59.0662 3.8623ZM64.0426 14.0898C63.5563 14.0898 63.1383 14.0283 62.7887 13.9053C62.4391 13.7822 62.1481 13.6201 61.9157 13.4189C61.6852 13.2197 61.5026 13.0059 61.3678 12.7773L62.1676 12.2148C62.2594 12.334 62.3746 12.4707 62.5133 12.625C62.652 12.7813 62.8424 12.917 63.0846 13.0322C63.3288 13.1475 63.6481 13.2051 64.0426 13.2051C64.5719 13.2051 65.0084 13.0771 65.3522 12.8213C65.6959 12.5654 65.8678 12.165 65.8678 11.6201V10.29H65.7799C65.7077 10.4092 65.6032 10.5566 65.4664 10.7324C65.3317 10.9062 65.1383 11.0605 64.8864 11.1953C64.6364 11.3301 64.2985 11.3975 63.8727 11.3975C63.3434 11.3975 62.8688 11.2725 62.4489 11.0225C62.0309 10.7725 61.6998 10.4092 61.4557 9.93262C61.2135 9.4541 61.0924 8.87402 61.0924 8.19238C61.0924 7.52246 61.2106 6.93848 61.4469 6.44043C61.6832 5.94043 62.0114 5.55371 62.4313 5.28027C62.8512 5.00684 63.3375 4.87012 63.8903 4.87012C64.3161 4.87012 64.6539 4.94043 64.9039 5.08105C65.1559 5.22168 65.3493 5.38086 65.484 5.55859C65.6188 5.73633 65.7233 5.88184 65.7975 5.99512H65.9V4.95508H66.8727V11.6875C66.8727 12.25 66.7448 12.708 66.4889 13.0615C66.235 13.415 65.8942 13.6748 65.4664 13.8408C65.0407 14.0068 64.5661 14.0898 64.0426 14.0898ZM64.0075 10.4951C64.4118 10.4951 64.7526 10.4033 65.0299 10.2197C65.3092 10.0342 65.5211 9.76855 65.6657 9.42285C65.8102 9.0752 65.8825 8.65918 65.8825 8.1748C65.8825 7.7041 65.8112 7.28906 65.6686 6.92969C65.528 6.56836 65.318 6.28516 65.0387 6.08008C64.7614 5.875 64.4176 5.77246 64.0075 5.77246C63.5817 5.77246 63.2272 5.88086 62.944 6.09766C62.6627 6.3125 62.4518 6.60254 62.3112 6.96777C62.1705 7.33105 62.1002 7.7334 62.1002 8.1748C62.1002 8.62988 62.1715 9.03223 62.3141 9.38184C62.4586 9.72949 62.6715 10.002 62.9528 10.1992C63.236 10.3965 63.5875 10.4951 64.0075 10.4951ZM69.7172 7.5625V11.5H68.7124V4.95508H69.685V5.97754H69.77C69.9223 5.64551 70.1547 5.37793 70.4672 5.1748C70.7797 4.97168 71.184 4.87012 71.6801 4.87012C72.1215 4.87012 72.5083 4.95996 72.8403 5.13965C73.1743 5.31934 73.4331 5.5918 73.6167 5.95703C73.8022 6.32227 73.895 6.7832 73.895 7.33984V11.5H72.8901V7.41016C72.8901 6.89453 72.7563 6.49316 72.4887 6.20605C72.2211 5.91699 71.8549 5.77246 71.3901 5.77246C71.0678 5.77246 70.7807 5.84277 70.5288 5.9834C70.2788 6.12207 70.0805 6.3252 69.934 6.59277C69.7895 6.8584 69.7172 7.18164 69.7172 7.5625ZM75.7349 11.5V4.95508H76.7398V11.5H75.7349ZM76.2476 3.8623C76.0503 3.8623 75.8814 3.7959 75.7408 3.66309C75.6001 3.53027 75.5298 3.37012 75.5298 3.18262C75.5298 2.99512 75.6001 2.83496 75.7408 2.70215C75.8814 2.56738 76.0503 2.5 76.2476 2.5C76.4429 2.5 76.6109 2.56738 76.7515 2.70215C76.8921 2.83496 76.9624 2.99512 76.9624 3.18262C76.9624 3.37012 76.8921 3.53027 76.7515 3.66309C76.6109 3.7959 76.4429 3.8623 76.2476 3.8623ZM79.5863 7.5625V11.5H78.5814V4.95508H79.5541V5.97754H79.639C79.7914 5.64551 80.0238 5.37793 80.3363 5.1748C80.6488 4.97168 81.0531 4.87012 81.5492 4.87012C81.9906 4.87012 82.3773 4.95996 82.7094 5.13965C83.0433 5.31934 83.3021 5.5918 83.4857 5.95703C83.6713 6.32227 83.764 6.7832 83.764 7.33984V11.5H82.7592V7.41016C82.7592 6.89453 82.6254 6.49316 82.3578 6.20605C82.0902 5.91699 81.724 5.77246 81.2592 5.77246C80.9369 5.77246 80.6498 5.84277 80.3978 5.9834C80.1478 6.12207 79.9496 6.3252 79.8031 6.59277C79.6586 6.8584 79.5863 7.18164 79.5863 7.5625ZM88.2466 14.0898C87.7602 14.0898 87.3423 14.0283 86.9926 13.9053C86.643 13.7822 86.352 13.6201 86.1196 13.4189C85.8891 13.2197 85.7065 13.0059 85.5717 12.7773L86.3716 12.2148C86.4633 12.334 86.5786 12.4707 86.7173 12.625C86.8559 12.7813 87.0464 12.917 87.2885 13.0322C87.5327 13.1475 87.852 13.2051 88.2466 13.2051C88.7758 13.2051 89.2124 13.0771 89.5561 12.8213C89.8999 12.5654 90.0717 12.165 90.0717 11.6201V10.29H89.9839C89.9116 10.4092 89.8071 10.5566 89.6704 10.7324C89.5356 10.9062 89.3423 11.0605 89.0903 11.1953C88.8403 11.3301 88.5024 11.3975 88.0766 11.3975C87.5473 11.3975 87.0727 11.2725 86.6528 11.0225C86.2348 10.7725 85.9038 10.4092 85.6596 9.93262C85.4174 9.4541 85.2964 8.87402 85.2964 8.19238C85.2964 7.52246 85.4145 6.93848 85.6508 6.44043C85.8872 5.94043 86.2153 5.55371 86.6352 5.28027C87.0551 5.00684 87.5415 4.87012 88.0942 4.87012C88.52 4.87012 88.8579 4.94043 89.1079 5.08105C89.3598 5.22168 89.5532 5.38086 89.688 5.55859C89.8227 5.73633 89.9272 5.88184 90.0014 5.99512H90.104V4.95508H91.0766V11.6875C91.0766 12.25 90.9487 12.708 90.6928 13.0615C90.4389 13.415 90.0981 13.6748 89.6704 13.8408C89.2446 14.0068 88.77 14.0898 88.2466 14.0898ZM88.2114 10.4951C88.6157 10.4951 88.9565 10.4033 89.2339 10.2197C89.5132 10.0342 89.7251 9.76855 89.8696 9.42285C90.0141 9.0752 90.0864 8.65918 90.0864 8.1748C90.0864 7.7041 90.0151 7.28906 89.8725 6.92969C89.7319 6.56836 89.5219 6.28516 89.2426 6.08008C88.9653 5.875 88.6216 5.77246 88.2114 5.77246C87.7856 5.77246 87.4311 5.88086 87.1479 6.09766C86.8667 6.3125 86.6557 6.60254 86.5151 6.96777C86.3745 7.33105 86.3042 7.7334 86.3042 8.1748C86.3042 8.62988 86.3755 9.03223 86.518 9.38184C86.6626 9.72949 86.8755 10.002 87.1567 10.1992C87.4399 10.3965 87.7915 10.4951 88.2114 10.4951ZM100.416 8.8252V4.95508H101.421V11.5H100.416V10.3926H100.349C100.195 10.7246 99.9553 11.0068 99.631 11.2393C99.3088 11.4697 98.9006 11.585 98.4064 11.585C97.9963 11.585 97.632 11.4951 97.3137 11.3154C96.9953 11.1338 96.7453 10.8613 96.5637 10.498C96.382 10.1328 96.2912 9.6709 96.2912 9.1123V4.95508H97.2961V9.04492C97.2961 9.52344 97.4299 9.9043 97.6974 10.1875C97.967 10.4707 98.3107 10.6123 98.7287 10.6123C98.9787 10.6123 99.2336 10.5488 99.4933 10.4219C99.7531 10.2949 99.9719 10.0996 100.15 9.83594C100.327 9.57031 100.416 9.2334 100.416 8.8252ZM103.263 13.9551V4.95508H104.235V5.99512H104.355C104.428 5.88184 104.53 5.73633 104.663 5.55859C104.796 5.38086 104.986 5.22168 105.234 5.08105C105.482 4.94043 105.819 4.87012 106.245 4.87012C106.798 4.87012 107.284 5.00781 107.704 5.2832C108.124 5.55859 108.452 5.94922 108.688 6.45508C108.925 6.96094 109.043 7.55762 109.043 8.24512C109.043 8.93848 108.925 9.53906 108.688 10.0469C108.452 10.5527 108.125 10.9443 107.707 11.2217C107.289 11.499 106.808 11.6377 106.263 11.6377C105.843 11.6377 105.506 11.5674 105.252 11.4268C105 11.2861 104.806 11.126 104.669 10.9463C104.532 10.7646 104.428 10.6143 104.355 10.4951H104.268V13.9551H103.263ZM104.253 8.22754C104.253 8.72168 104.325 9.15723 104.47 9.53418C104.614 9.90918 104.825 10.2031 105.102 10.416C105.382 10.627 105.724 10.7324 106.128 10.7324C106.548 10.7324 106.898 10.6211 107.18 10.3984C107.463 10.1758 107.676 9.875 107.818 9.49609C107.963 9.11523 108.035 8.69238 108.035 8.22754C108.035 7.7666 107.965 7.35156 107.824 6.98242C107.684 6.61133 107.472 6.31738 107.188 6.10059C106.907 5.88184 106.554 5.77246 106.128 5.77246C105.718 5.77246 105.373 5.87598 105.094 6.08301C104.816 6.28809 104.606 6.5752 104.464 6.94434C104.323 7.31152 104.253 7.73926 104.253 8.22754ZM112.075 10.3076L112.008 10.7676C111.959 11.0918 111.885 11.4385 111.788 11.8076C111.69 12.1768 111.589 12.5244 111.483 12.8506C111.378 13.1768 111.291 13.4365 111.222 13.6299H110.455C110.492 13.4482 110.54 13.208 110.598 12.9092C110.659 12.6123 110.719 12.2793 110.78 11.9102C110.843 11.543 110.893 11.168 110.932 10.7852L110.985 10.3076H112.075ZM117.955 13.9551C117.785 13.9551 117.633 13.9414 117.498 13.9141C117.365 13.8867 117.274 13.8604 117.223 13.835L117.478 12.9502C117.722 13.0127 117.938 13.0352 118.125 13.0176C118.313 13 118.48 12.916 118.626 12.7656C118.773 12.6172 118.907 12.377 119.03 12.0449L119.218 11.5352L116.798 4.95508H117.888L119.695 10.1699H119.763L121.57 4.95508H122.66L119.883 12.4551C119.758 12.793 119.603 13.0732 119.417 13.2959C119.233 13.5186 119.02 13.6836 118.775 13.791C118.533 13.9004 118.26 13.9551 117.955 13.9551ZM126.411 11.6377C125.819 11.6377 125.301 11.4971 124.855 11.2158C124.412 10.9346 124.065 10.541 123.815 10.0352C123.567 9.5293 123.443 8.93848 123.443 8.2627C123.443 7.5791 123.567 6.9834 123.815 6.47559C124.065 5.96777 124.412 5.57324 124.855 5.29199C125.301 5.01074 125.819 4.87012 126.411 4.87012C127.001 4.87012 127.518 5.01074 127.964 5.29199C128.409 5.57324 128.756 5.96777 129.004 6.47559C129.252 6.9834 129.376 7.5791 129.376 8.2627C129.376 8.93848 129.252 9.5293 129.004 10.0352C128.756 10.541 128.409 10.9346 127.964 11.2158C127.518 11.4971 127.001 11.6377 126.411 11.6377ZM126.411 10.7324C126.86 10.7324 127.229 10.6182 127.518 10.3896C127.807 10.1592 128.021 9.85645 128.16 9.48145C128.301 9.10645 128.371 8.7002 128.371 8.2627C128.371 7.8252 128.301 7.41797 128.16 7.04102C128.021 6.66211 127.807 6.35645 127.518 6.12402C127.229 5.88965 126.86 5.77246 126.411 5.77246C125.962 5.77246 125.592 5.88965 125.301 6.12402C125.011 6.35645 124.798 6.66211 124.659 7.04102C124.52 7.41797 124.451 7.8252 124.451 8.2627C124.451 8.7002 124.52 9.10645 124.659 9.48145C124.798 9.85645 125.011 10.1592 125.301 10.3896C125.592 10.6182 125.962 10.7324 126.411 10.7324ZM135.035 8.8252V4.95508H136.04V11.5H135.035V10.3926H134.967C134.813 10.7246 134.574 11.0068 134.249 11.2393C133.927 11.4697 133.519 11.585 133.025 11.585C132.615 11.585 132.25 11.4951 131.932 11.3154C131.614 11.1338 131.364 10.8613 131.182 10.498C131 10.1328 130.91 9.6709 130.91 9.1123V4.95508H131.915V9.04492C131.915 9.52344 132.048 9.9043 132.316 10.1875C132.585 10.4707 132.929 10.6123 133.347 10.6123C133.597 10.6123 133.852 10.5488 134.112 10.4219C134.372 10.2949 134.59 10.0996 134.768 9.83594C134.946 9.57031 135.035 9.2334 135.035 8.8252ZM143.184 11.6523C142.768 11.6523 142.391 11.5742 142.053 11.418C141.715 11.2598 141.446 11.0312 141.247 10.7324C141.048 10.4316 140.948 10.0684 140.948 9.64258C140.948 9.26758 141.023 8.96289 141.171 8.72852C141.319 8.49414 141.517 8.31055 141.763 8.17773C142.011 8.04297 142.284 7.94238 142.583 7.87598C142.884 7.80957 143.186 7.75586 143.488 7.71484C143.887 7.66406 144.21 7.62598 144.458 7.60059C144.708 7.57324 144.89 7.52734 145.003 7.46289C145.118 7.39648 145.176 7.28223 145.176 7.12012V7.08496C145.176 6.66504 145.062 6.33887 144.833 6.10645C144.605 5.87207 144.259 5.75488 143.796 5.75488C143.316 5.75488 142.939 5.86035 142.665 6.07129C142.394 6.28223 142.202 6.50684 142.091 6.74512L141.136 6.40234C141.308 6.00586 141.536 5.69629 141.821 5.47363C142.107 5.24902 142.419 5.09277 142.759 5.00488C143.099 4.91504 143.433 4.87012 143.761 4.87012C143.972 4.87012 144.214 4.89551 144.487 4.94629C144.763 4.99512 145.028 5.09668 145.284 5.25098C145.542 5.40332 145.756 5.63477 145.926 5.94531C146.098 6.25391 146.184 6.66797 146.184 7.1875V11.5H145.176V10.6123H145.126C145.058 10.7549 144.943 10.9072 144.783 11.0693C144.625 11.2314 144.414 11.3691 144.15 11.4824C143.887 11.5957 143.565 11.6523 143.184 11.6523ZM143.336 10.75C143.734 10.75 144.07 10.6719 144.344 10.5156C144.617 10.3594 144.824 10.1582 144.965 9.91211C145.106 9.66406 145.176 9.40332 145.176 9.12988V8.20996C145.135 8.26074 145.042 8.30664 144.898 8.34766C144.755 8.38867 144.59 8.4248 144.402 8.45605C144.217 8.48535 144.036 8.51074 143.86 8.53223C143.687 8.55371 143.546 8.57129 143.439 8.58496C143.177 8.62012 142.933 8.67578 142.706 8.75195C142.482 8.82617 142.3 8.9375 142.161 9.08594C142.025 9.23438 141.956 9.43652 141.956 9.69238C141.956 10.042 142.086 10.3057 142.346 10.4834C142.606 10.6611 142.936 10.75 143.336 10.75ZM150.665 14.0898C150.179 14.0898 149.761 14.0283 149.412 13.9053C149.062 13.7822 148.771 13.6201 148.538 13.4189C148.308 13.2197 148.125 13.0059 147.991 12.7773L148.79 12.2148C148.882 12.334 148.997 12.4707 149.136 12.625C149.275 12.7813 149.465 12.917 149.707 13.0322C149.952 13.1475 150.271 13.2051 150.665 13.2051C151.195 13.2051 151.631 13.0771 151.975 12.8213C152.319 12.5654 152.491 12.165 152.491 11.6201V10.29H152.403C152.33 10.4092 152.226 10.5566 152.089 10.7324C151.954 10.9062 151.761 11.0605 151.509 11.1953C151.259 11.3301 150.921 11.3975 150.495 11.3975C149.966 11.3975 149.492 11.2725 149.072 11.0225C148.654 10.7725 148.323 10.4092 148.079 9.93262C147.836 9.4541 147.715 8.87402 147.715 8.19238C147.715 7.52246 147.833 6.93848 148.07 6.44043C148.306 5.94043 148.634 5.55371 149.054 5.28027C149.474 5.00684 149.96 4.87012 150.513 4.87012C150.939 4.87012 151.277 4.94043 151.527 5.08105C151.779 5.22168 151.972 5.38086 152.107 5.55859C152.242 5.73633 152.346 5.88184 152.42 5.99512H152.523V4.95508H153.495V11.6875C153.495 12.25 153.368 12.708 153.112 13.0615C152.858 13.415 152.517 13.6748 152.089 13.8408C151.663 14.0068 151.189 14.0898 150.665 14.0898ZM150.63 10.4951C151.035 10.4951 151.375 10.4033 151.653 10.2197C151.932 10.0342 152.144 9.76855 152.288 9.42285C152.433 9.0752 152.505 8.65918 152.505 8.1748C152.505 7.7041 152.434 7.28906 152.291 6.92969C152.151 6.56836 151.941 6.28516 151.662 6.08008C151.384 5.875 151.04 5.77246 150.63 5.77246C150.204 5.77246 149.85 5.88086 149.567 6.09766C149.286 6.3125 149.075 6.60254 148.934 6.96777C148.793 7.33105 148.723 7.7334 148.723 8.1748C148.723 8.62988 148.794 9.03223 148.937 9.38184C149.081 9.72949 149.294 10.002 149.576 10.1992C149.859 10.3965 150.21 10.4951 150.63 10.4951ZM155.335 11.5V4.95508H156.308V5.94238H156.375C156.494 5.61816 156.71 5.35547 157.023 5.1543C157.335 4.95312 157.688 4.85254 158.08 4.85254C158.154 4.85254 158.246 4.85449 158.356 4.8584C158.467 4.86035 158.551 4.86426 158.608 4.87012V5.89258C158.574 5.88281 158.497 5.86914 158.376 5.85156C158.255 5.83398 158.128 5.8252 157.995 5.8252C157.677 5.8252 157.393 5.8916 157.143 6.02441C156.895 6.15527 156.698 6.33691 156.554 6.56934C156.411 6.7998 156.34 7.0625 156.34 7.35742V11.5H155.335ZM162.342 11.6377C161.711 11.6377 161.167 11.498 160.71 11.2188C160.255 10.9375 159.904 10.5449 159.658 10.041C159.412 9.53711 159.289 8.94922 159.289 8.27734C159.289 7.60742 159.412 7.0166 159.658 6.50488C159.904 5.99121 160.248 5.59082 160.689 5.30371C161.131 5.01465 161.647 4.87012 162.239 4.87012C162.581 4.87012 162.918 4.92676 163.25 5.04004C163.582 5.15332 163.884 5.33691 164.155 5.59082C164.428 5.84473 164.646 6.18066 164.808 6.59863C164.97 7.0166 165.051 7.53125 165.051 8.14258V8.56738H160.007V7.7002H164.029C164.029 7.3291 163.956 6.99902 163.809 6.70996C163.663 6.4209 163.455 6.19238 163.185 6.02441C162.918 5.85645 162.602 5.77246 162.239 5.77246C161.839 5.77246 161.493 5.87109 161.202 6.06836C160.911 6.26563 160.687 6.52246 160.531 6.83887C160.375 7.15332 160.297 7.49121 160.297 7.85254V8.43262C160.297 8.92676 160.383 9.34473 160.554 9.68652C160.726 10.0283 160.966 10.2881 161.272 10.4658C161.579 10.6436 161.935 10.7324 162.342 10.7324C162.605 10.7324 162.844 10.6953 163.059 10.6211C163.274 10.5449 163.46 10.4307 163.616 10.2783C163.772 10.126 163.892 9.93652 163.976 9.70996L164.949 9.98242C164.847 10.3125 164.676 10.6016 164.433 10.8496C164.191 11.0977 163.892 11.291 163.537 11.4297C163.183 11.5684 162.785 11.6377 162.342 11.6377ZM169.33 11.6377C168.699 11.6377 168.155 11.498 167.698 11.2188C167.243 10.9375 166.892 10.5449 166.646 10.041C166.4 9.53711 166.277 8.94922 166.277 8.27734C166.277 7.60742 166.4 7.0166 166.646 6.50488C166.892 5.99121 167.236 5.59082 167.678 5.30371C168.119 5.01465 168.636 4.87012 169.227 4.87012C169.569 4.87012 169.906 4.92676 170.238 5.04004C170.57 5.15332 170.872 5.33691 171.143 5.59082C171.417 5.84473 171.635 6.18066 171.797 6.59863C171.959 7.0166 172.04 7.53125 172.04 8.14258V8.56738H166.995V7.7002H171.017C171.017 7.3291 170.944 6.99902 170.798 6.70996C170.651 6.4209 170.443 6.19238 170.174 6.02441C169.906 5.85645 169.591 5.77246 169.227 5.77246C168.827 5.77246 168.481 5.87109 168.19 6.06836C167.899 6.26563 167.676 6.52246 167.519 6.83887C167.363 7.15332 167.285 7.49121 167.285 7.85254V8.43262C167.285 8.92676 167.371 9.34473 167.543 9.68652C167.715 10.0283 167.954 10.2881 168.261 10.4658C168.567 10.6436 168.924 10.7324 169.33 10.7324C169.594 10.7324 169.833 10.6953 170.048 10.6211C170.263 10.5449 170.448 10.4307 170.604 10.2783C170.761 10.126 170.881 9.93652 170.965 9.70996L171.937 9.98242C171.836 10.3125 171.664 10.6016 171.422 10.8496C171.18 11.0977 170.881 11.291 170.525 11.4297C170.172 11.5684 169.773 11.6377 169.33 11.6377ZM179.796 4.95508V5.80762H176.403V4.95508H179.796ZM177.391 3.3877H178.398V9.625C178.398 9.9082 178.44 10.1201 178.524 10.2607C178.608 10.4014 178.716 10.4951 178.847 10.542C178.979 10.5889 179.119 10.6123 179.266 10.6123C179.377 10.6123 179.468 10.6064 179.538 10.5947C179.61 10.5811 179.668 10.5703 179.711 10.5625L179.916 11.4648C179.848 11.4902 179.752 11.5166 179.629 11.5439C179.508 11.5713 179.354 11.585 179.166 11.585C178.881 11.585 178.603 11.5244 178.331 11.4033C178.06 11.2803 177.835 11.0938 177.657 10.8438C177.479 10.5937 177.391 10.2783 177.391 9.89746V3.3877ZM183.904 11.6377C183.312 11.6377 182.793 11.4971 182.348 11.2158C181.905 10.9346 181.558 10.541 181.308 10.0352C181.06 9.5293 180.936 8.93848 180.936 8.2627C180.936 7.5791 181.06 6.9834 181.308 6.47559C181.558 5.96777 181.905 5.57324 182.348 5.29199C182.793 5.01074 183.312 4.87012 183.904 4.87012C184.494 4.87012 185.011 5.01074 185.456 5.29199C185.902 5.57324 186.248 5.96777 186.497 6.47559C186.745 6.9834 186.869 7.5791 186.869 8.2627C186.869 8.93848 186.745 9.5293 186.497 10.0352C186.248 10.541 185.902 10.9346 185.456 11.2158C185.011 11.4971 184.494 11.6377 183.904 11.6377ZM183.904 10.7324C184.353 10.7324 184.722 10.6182 185.011 10.3896C185.3 10.1592 185.514 9.85645 185.653 9.48145C185.793 9.10645 185.864 8.7002 185.864 8.2627C185.864 7.8252 185.793 7.41797 185.653 7.04102C185.514 6.66211 185.3 6.35645 185.011 6.12402C184.722 5.88965 184.353 5.77246 183.904 5.77246C183.455 5.77246 183.084 5.88965 182.793 6.12402C182.504 6.35645 182.29 6.66211 182.152 7.04102C182.013 7.41797 181.944 7.8252 181.944 8.2627C181.944 8.7002 182.013 9.10645 182.152 9.48145C182.29 9.85645 182.504 10.1592 182.793 10.3896C183.084 10.6182 183.455 10.7324 183.904 10.7324ZM194.438 11.6377C193.846 11.6377 193.327 11.4971 192.882 11.2158C192.439 10.9346 192.092 10.541 191.842 10.0352C191.594 9.5293 191.47 8.93848 191.47 8.2627C191.47 7.5791 191.594 6.9834 191.842 6.47559C192.092 5.96777 192.439 5.57324 192.882 5.29199C193.327 5.01074 193.846 4.87012 194.438 4.87012C195.027 4.87012 195.545 5.01074 195.99 5.29199C196.436 5.57324 196.782 5.96777 197.03 6.47559C197.278 6.9834 197.402 7.5791 197.402 8.2627C197.402 8.93848 197.278 9.5293 197.03 10.0352C196.782 10.541 196.436 10.9346 195.99 11.2158C195.545 11.4971 195.027 11.6377 194.438 11.6377ZM194.438 10.7324C194.887 10.7324 195.256 10.6182 195.545 10.3896C195.834 10.1592 196.048 9.85645 196.187 9.48145C196.327 9.10645 196.398 8.7002 196.398 8.2627C196.398 7.8252 196.327 7.41797 196.187 7.04102C196.048 6.66211 195.834 6.35645 195.545 6.12402C195.256 5.88965 194.887 5.77246 194.438 5.77246C193.988 5.77246 193.618 5.88965 193.327 6.12402C193.038 6.35645 192.824 6.66211 192.686 7.04102C192.547 7.41797 192.478 7.8252 192.478 8.2627C192.478 8.7002 192.547 9.10645 192.686 9.48145C192.824 9.85645 193.038 10.1592 193.327 10.3896C193.618 10.6182 193.988 10.7324 194.438 10.7324ZM203.061 8.8252V4.95508H204.066V11.5H203.061V10.3926H202.994C202.84 10.7246 202.6 11.0068 202.276 11.2393C201.954 11.4697 201.546 11.585 201.052 11.585C200.641 11.585 200.277 11.4951 199.959 11.3154C199.64 11.1338 199.39 10.8613 199.209 10.498C199.027 10.1328 198.936 9.6709 198.936 9.1123V4.95508H199.941V9.04492C199.941 9.52344 200.075 9.9043 200.343 10.1875C200.612 10.4707 200.956 10.6123 201.374 10.6123C201.624 10.6123 201.879 10.5488 202.138 10.4219C202.398 10.2949 202.617 10.0996 202.795 9.83594C202.972 9.57031 203.061 9.2334 203.061 8.8252ZM205.908 11.5V4.95508H206.88V5.94238H206.948C207.067 5.61816 207.283 5.35547 207.595 5.1543C207.908 4.95312 208.26 4.85254 208.653 4.85254C208.727 4.85254 208.819 4.85449 208.928 4.8584C209.04 4.86035 209.124 4.86426 209.18 4.87012V5.89258C209.147 5.88281 209.07 5.86914 208.949 5.85156C208.828 5.83398 208.701 5.8252 208.568 5.8252C208.25 5.8252 207.965 5.8916 207.715 6.02441C207.467 6.15527 207.271 6.33691 207.126 6.56934C206.984 6.7998 206.913 7.0625 206.913 7.35742V11.5H205.908ZM122.184 27.6523C121.768 27.6523 121.391 27.5742 121.053 27.418C120.715 27.2598 120.447 27.0312 120.248 26.7324C120.048 26.4316 119.949 26.0684 119.949 25.6426C119.949 25.2676 120.023 24.9629 120.172 24.7285C120.32 24.4941 120.517 24.3105 120.763 24.1777C121.011 24.043 121.285 23.9424 121.584 23.876C121.884 23.8096 122.186 23.7559 122.489 23.7148C122.887 23.6641 123.211 23.626 123.459 23.6006C123.709 23.5732 123.89 23.5273 124.004 23.4629C124.119 23.3965 124.176 23.2822 124.176 23.1201V23.085C124.176 22.665 124.062 22.3389 123.834 22.1064C123.605 21.8721 123.259 21.7549 122.797 21.7549C122.316 21.7549 121.939 21.8604 121.666 22.0713C121.394 22.2822 121.203 22.5068 121.091 22.7451L120.136 22.4023C120.308 22.0059 120.537 21.6963 120.822 21.4736C121.107 21.249 121.42 21.0928 121.759 21.0049C122.099 20.915 122.433 20.8701 122.761 20.8701C122.972 20.8701 123.214 20.8955 123.488 20.9463C123.763 20.9951 124.029 21.0967 124.285 21.251C124.543 21.4033 124.756 21.6348 124.926 21.9453C125.098 22.2539 125.184 22.668 125.184 23.1875V27.5H124.176V26.6123H124.127C124.058 26.7549 123.944 26.9072 123.784 27.0693C123.626 27.2314 123.415 27.3691 123.151 27.4824C122.887 27.5957 122.565 27.6523 122.184 27.6523ZM122.337 26.75C122.735 26.75 123.071 26.6719 123.344 26.5156C123.618 26.3594 123.825 26.1582 123.965 25.9121C124.106 25.6641 124.176 25.4033 124.176 25.1299V24.21C124.135 24.2607 124.043 24.3066 123.898 24.3477C123.755 24.3887 123.59 24.4248 123.403 24.4561C123.217 24.4854 123.037 24.5107 122.861 24.5322C122.687 24.5537 122.547 24.5713 122.439 24.585C122.177 24.6201 121.933 24.6758 121.707 24.752C121.482 24.8262 121.3 24.9375 121.162 25.0859C121.025 25.2344 120.957 25.4365 120.957 25.6924C120.957 26.042 121.087 26.3057 121.346 26.4834C121.606 26.6611 121.936 26.75 122.337 26.75ZM128.028 23.5625V27.5H127.023V20.9551H127.996V21.9775H128.081C128.233 21.6455 128.466 21.3779 128.778 21.1748C129.091 20.9717 129.495 20.8701 129.991 20.8701C130.433 20.8701 130.819 20.96 131.151 21.1396C131.485 21.3193 131.744 21.5918 131.928 21.957C132.113 22.3223 132.206 22.7832 132.206 23.3398V27.5H131.201V23.4102C131.201 22.8945 131.067 22.4932 130.8 22.2061C130.532 21.917 130.166 21.7725 129.701 21.7725C129.379 21.7725 129.092 21.8428 128.84 21.9834C128.59 22.1221 128.392 22.3252 128.245 22.5928C128.1 22.8584 128.028 23.1816 128.028 23.5625ZM136.519 27.6377C135.974 27.6377 135.492 27.499 135.074 27.2217C134.656 26.9443 134.329 26.5527 134.093 26.0469C133.856 25.5391 133.738 24.9385 133.738 24.2451C133.738 23.5576 133.856 22.9609 134.093 22.4551C134.329 21.9492 134.657 21.5586 135.077 21.2832C135.497 21.0078 135.983 20.8701 136.536 20.8701C136.962 20.8701 137.299 20.9404 137.547 21.0811C137.795 21.2217 137.985 21.3809 138.118 21.5586C138.251 21.7363 138.354 21.8818 138.426 21.9951H138.514V18.7725H139.519V27.5H138.546V26.4951H138.426C138.354 26.6143 138.249 26.7646 138.112 26.9463C137.976 27.126 137.78 27.2861 137.526 27.4268C137.274 27.5674 136.938 27.6377 136.519 27.6377ZM136.653 26.7324C137.058 26.7324 137.398 26.627 137.676 26.416C137.955 26.2031 138.167 25.9092 138.312 25.5342C138.456 25.1572 138.528 24.7217 138.528 24.2275C138.528 23.7393 138.457 23.3115 138.314 22.9443C138.174 22.5752 137.964 22.2881 137.685 22.083C137.407 21.876 137.063 21.7725 136.653 21.7725C136.228 21.7725 135.873 21.8818 135.59 22.1006C135.309 22.3174 135.098 22.6113 134.957 22.9824C134.816 23.3516 134.746 23.7666 134.746 24.2275C134.746 24.6924 134.817 25.1152 134.96 25.4961C135.104 25.875 135.317 26.1758 135.599 26.3984C135.882 26.6211 136.233 26.7324 136.653 26.7324Z" fill="#6B7280"/>
<path d="M213.409 3.70996V2.77246H219.954V3.70996H217.208V11.5H216.154V3.70996H213.409ZM223.243 11.6377C222.612 11.6377 222.069 11.498 221.612 11.2188C221.156 10.9375 220.806 10.5449 220.56 10.041C220.314 9.53711 220.191 8.94922 220.191 8.27734C220.191 7.60742 220.314 7.0166 220.56 6.50488C220.806 5.99121 221.15 5.59082 221.591 5.30371C222.032 5.01465 222.549 4.87012 223.141 4.87012C223.483 4.87012 223.82 4.92676 224.152 5.04004C224.484 5.15332 224.785 5.33691 225.057 5.59082C225.33 5.84473 225.548 6.18066 225.71 6.59863C225.872 7.0166 225.953 7.53125 225.953 8.14258V8.56738H220.908V7.7002H224.931C224.931 7.3291 224.858 6.99902 224.711 6.70996C224.565 6.4209 224.357 6.19238 224.087 6.02441C223.82 5.85645 223.504 5.77246 223.141 5.77246C222.74 5.77246 222.395 5.87109 222.104 6.06836C221.813 6.26563 221.589 6.52246 221.433 6.83887C221.277 7.15332 221.198 7.49121 221.198 7.85254V8.43262C221.198 8.92676 221.284 9.34473 221.456 9.68652C221.628 10.0283 221.867 10.2881 222.174 10.4658C222.481 10.6436 222.837 10.7324 223.243 10.7324C223.507 10.7324 223.746 10.6953 223.961 10.6211C224.176 10.5449 224.362 10.4307 224.518 10.2783C224.674 10.126 224.794 9.93652 224.878 9.70996L225.851 9.98242C225.749 10.3125 225.577 10.6016 225.335 10.8496C225.093 11.0977 224.794 11.291 224.439 11.4297C224.085 11.5684 223.687 11.6377 223.243 11.6377ZM227.487 11.5V4.95508H228.459V5.94238H228.527C228.646 5.61816 228.862 5.35547 229.174 5.1543C229.487 4.95312 229.839 4.85254 230.232 4.85254C230.306 4.85254 230.398 4.85449 230.507 4.8584C230.619 4.86035 230.703 4.86426 230.759 4.87012V5.89258C230.726 5.88281 230.649 5.86914 230.528 5.85156C230.407 5.83398 230.28 5.8252 230.147 5.8252C229.828 5.8252 229.544 5.8916 229.294 6.02441C229.046 6.15527 228.85 6.33691 228.705 6.56934C228.563 6.7998 228.492 7.0625 228.492 7.35742V11.5H227.487ZM231.952 11.5V4.95508H232.925V5.97754H233.01C233.147 5.62793 233.367 5.35645 233.669 5.16309C233.974 4.96777 234.339 4.87012 234.765 4.87012C235.197 4.87012 235.557 4.96777 235.846 5.16309C236.135 5.35645 236.36 5.62793 236.52 5.97754H236.59C236.758 5.63965 237.009 5.37109 237.343 5.17188C237.679 4.9707 238.081 4.87012 238.55 4.87012C239.134 4.87012 239.613 5.05273 239.986 5.41797C240.359 5.7832 240.545 6.35059 240.545 7.12012V11.5H239.537V7.12012C239.537 6.63574 239.406 6.29004 239.142 6.08301C238.878 5.87598 238.567 5.77246 238.207 5.77246C237.748 5.77246 237.392 5.91113 237.138 6.18848C236.886 6.46582 236.76 6.81543 236.76 7.2373V11.5H235.738V7.01758C235.738 6.64453 235.617 6.34375 235.374 6.11523C235.134 5.88672 234.824 5.77246 234.443 5.77246C234.181 5.77246 233.937 5.84277 233.71 5.9834C233.486 6.12207 233.304 6.31445 233.165 6.56055C233.027 6.80469 232.957 7.08789 232.957 7.41016V11.5H231.952ZM247.022 6.41992L246.116 6.6748C246.06 6.52441 245.977 6.37793 245.867 6.23535C245.758 6.09082 245.61 5.97168 245.422 5.87793C245.235 5.78418 244.994 5.7373 244.701 5.7373C244.301 5.7373 243.968 5.8291 243.702 6.0127C243.437 6.19629 243.304 6.42871 243.304 6.70996C243.304 6.95996 243.395 7.15723 243.576 7.30176C243.76 7.44629 244.044 7.56738 244.429 7.66504L245.402 7.90234C245.988 8.04492 246.423 8.26172 246.708 8.55273C246.995 8.84375 247.139 9.21777 247.139 9.6748C247.139 10.0498 247.031 10.3857 246.817 10.6826C246.604 10.9775 246.305 11.2109 245.92 11.3828C245.537 11.5527 245.092 11.6377 244.584 11.6377C243.916 11.6377 243.364 11.4932 242.926 11.2041C242.489 10.9131 242.211 10.4893 242.094 9.93262L243.049 9.69238C243.141 10.0459 243.314 10.3105 243.568 10.4863C243.822 10.6621 244.155 10.75 244.567 10.75C245.035 10.75 245.408 10.6504 245.686 10.4512C245.963 10.25 246.102 10.0088 246.102 9.72754C246.102 9.50098 246.022 9.31055 245.862 9.15625C245.703 9 245.459 8.88379 245.129 8.80762L244.039 8.5498C243.44 8.40918 242.999 8.18945 242.718 7.89062C242.439 7.58984 242.299 7.21387 242.299 6.7627C242.299 6.3916 242.404 6.06445 242.613 5.78125C242.822 5.49805 243.107 5.27539 243.468 5.11328C243.831 4.95117 244.242 4.87012 244.701 4.87012C245.35 4.87012 245.86 5.0127 246.231 5.29785C246.602 5.58105 246.865 5.95508 247.022 6.41992ZM254.692 11.6377C254.1 11.6377 253.581 11.4971 253.136 11.2158C252.693 10.9346 252.346 10.541 252.096 10.0352C251.848 9.5293 251.724 8.93848 251.724 8.2627C251.724 7.5791 251.848 6.9834 252.096 6.47559C252.346 5.96777 252.693 5.57324 253.136 5.29199C253.581 5.01074 254.1 4.87012 254.692 4.87012C255.282 4.87012 255.799 5.01074 256.244 5.29199C256.69 5.57324 257.036 5.96777 257.284 6.47559C257.532 6.9834 257.657 7.5791 257.657 8.2627C257.657 8.93848 257.532 9.5293 257.284 10.0352C257.036 10.541 256.69 10.9346 256.244 11.2158C255.799 11.4971 255.282 11.6377 254.692 11.6377ZM254.692 10.7324C255.141 10.7324 255.51 10.6182 255.799 10.3896C256.088 10.1592 256.302 9.85645 256.441 9.48145C256.581 9.10645 256.652 8.7002 256.652 8.2627C256.652 7.8252 256.581 7.41797 256.441 7.04102C256.302 6.66211 256.088 6.35645 255.799 6.12402C255.51 5.88965 255.141 5.77246 254.692 5.77246C254.242 5.77246 253.872 5.88965 253.581 6.12402C253.292 6.35645 253.078 6.66211 252.94 7.04102C252.801 7.41797 252.732 7.8252 252.732 8.2627C252.732 8.7002 252.801 9.10645 252.94 9.48145C253.078 9.85645 253.292 10.1592 253.581 10.3896C253.872 10.6182 254.242 10.7324 254.692 10.7324ZM262.105 4.95508V5.80762H258.578V4.95508H262.105ZM259.633 11.5V4.0498C259.633 3.6748 259.721 3.3623 259.896 3.1123C260.074 2.8623 260.304 2.6748 260.585 2.5498C260.866 2.4248 261.163 2.3623 261.476 2.3623C261.722 2.3623 261.923 2.38281 262.079 2.42383C262.235 2.46289 262.353 2.5 262.431 2.53516L262.141 3.40234C262.09 3.38672 262.02 3.36621 261.93 3.34082C261.84 3.31348 261.723 3.2998 261.578 3.2998C261.246 3.2998 261.007 3.38379 260.86 3.55176C260.714 3.71973 260.641 3.96582 260.641 4.29004V11.5H259.633ZM271.805 4.95508C271.754 4.52344 271.546 4.18848 271.181 3.9502C270.818 3.70996 270.372 3.58984 269.845 3.58984C269.458 3.58984 269.12 3.65234 268.831 3.77734C268.544 3.90234 268.32 4.07422 268.157 4.29297C267.997 4.51172 267.917 4.76074 267.917 5.04004C267.917 5.27246 267.973 5.47168 268.084 5.6377C268.197 5.80371 268.342 5.94141 268.518 6.05078C268.696 6.16016 268.88 6.25 269.072 6.32031C269.265 6.39062 269.443 6.44629 269.605 6.4873L270.492 6.72754C270.719 6.78613 270.972 6.86816 271.251 6.97363C271.532 7.0791 271.801 7.22266 272.057 7.4043C272.315 7.58398 272.528 7.81445 272.696 8.0957C272.864 8.37695 272.947 8.72168 272.947 9.12988C272.947 9.60254 272.824 10.0293 272.578 10.4102C272.332 10.791 271.974 11.0938 271.503 11.3184C271.034 11.541 270.464 11.6523 269.792 11.6523C269.167 11.6523 268.626 11.5518 268.169 11.3506C267.714 11.1494 267.357 10.8682 267.097 10.5068C266.837 10.1455 266.691 9.72656 266.657 9.25H267.747C267.777 9.58008 267.888 9.85254 268.081 10.0674C268.277 10.2803 268.524 10.4395 268.822 10.5449C269.123 10.6484 269.447 10.7002 269.792 10.7002C270.197 10.7002 270.559 10.6338 270.879 10.501C271.201 10.3682 271.456 10.1836 271.644 9.94727C271.831 9.70898 271.925 9.43066 271.925 9.1123C271.925 8.82324 271.844 8.58789 271.682 8.40625C271.52 8.22461 271.306 8.07715 271.04 7.96387C270.777 7.85059 270.491 7.75098 270.185 7.66504L269.113 7.35742C268.429 7.16211 267.888 6.88281 267.489 6.51953C267.093 6.1543 266.895 5.67773 266.895 5.08984C266.895 4.60156 267.028 4.1748 267.293 3.80957C267.559 3.44434 267.916 3.16016 268.365 2.95703C268.817 2.75391 269.321 2.65234 269.877 2.65234C270.44 2.65234 270.94 2.75293 271.377 2.9541C271.815 3.15332 272.162 3.42676 272.42 3.77441C272.678 4.12012 272.814 4.51367 272.827 4.95508H271.805ZM277.293 11.6377C276.662 11.6377 276.118 11.498 275.661 11.2188C275.206 10.9375 274.856 10.5449 274.609 10.041C274.363 9.53711 274.24 8.94922 274.24 8.27734C274.24 7.60742 274.363 7.0166 274.609 6.50488C274.856 5.99121 275.199 5.59082 275.641 5.30371C276.082 5.01465 276.599 4.87012 277.191 4.87012C277.532 4.87012 277.869 4.92676 278.201 5.04004C278.533 5.15332 278.835 5.33691 279.107 5.59082C279.38 5.84473 279.598 6.18066 279.76 6.59863C279.922 7.0166 280.003 7.53125 280.003 8.14258V8.56738H274.958V7.7002H278.981C278.981 7.3291 278.907 6.99902 278.761 6.70996C278.614 6.4209 278.406 6.19238 278.137 6.02441C277.869 5.85645 277.554 5.77246 277.191 5.77246C276.79 5.77246 276.444 5.87109 276.153 6.06836C275.862 6.26563 275.639 6.52246 275.483 6.83887C275.326 7.15332 275.248 7.49121 275.248 7.85254V8.43262C275.248 8.92676 275.334 9.34473 275.506 9.68652C275.678 10.0283 275.917 10.2881 276.224 10.4658C276.53 10.6436 276.887 10.7324 277.293 10.7324C277.557 10.7324 277.796 10.6953 278.011 10.6211C278.226 10.5449 278.411 10.4307 278.568 10.2783C278.724 10.126 278.844 9.93652 278.928 9.70996L279.901 9.98242C279.799 10.3125 279.627 10.6016 279.385 10.8496C279.143 11.0977 278.844 11.291 278.488 11.4297C278.135 11.5684 277.736 11.6377 277.293 11.6377ZM281.536 11.5V4.95508H282.509V5.94238H282.576C282.696 5.61816 282.911 5.35547 283.224 5.1543C283.536 4.95312 283.889 4.85254 284.282 4.85254C284.356 4.85254 284.448 4.85449 284.557 4.8584C284.668 4.86035 284.752 4.86426 284.809 4.87012V5.89258C284.776 5.88281 284.699 5.86914 284.577 5.85156C284.456 5.83398 284.329 5.8252 284.197 5.8252C283.878 5.8252 283.594 5.8916 283.344 6.02441C283.096 6.15527 282.9 6.33691 282.755 6.56934C282.613 6.7998 282.541 7.0625 282.541 7.35742V11.5H281.536ZM291.559 4.95508L289.139 11.5H288.117L285.697 4.95508H286.787L288.594 10.1699H288.662L290.469 4.95508H291.559ZM292.888 11.5V4.95508H293.893V11.5H292.888ZM293.401 3.8623C293.204 3.8623 293.035 3.7959 292.894 3.66309C292.754 3.53027 292.683 3.37012 292.683 3.18262C292.683 2.99512 292.754 2.83496 292.894 2.70215C293.035 2.56738 293.204 2.5 293.401 2.5C293.596 2.5 293.764 2.56738 293.905 2.70215C294.046 2.83496 294.116 2.99512 294.116 3.18262C294.116 3.37012 294.046 3.53027 293.905 3.66309C293.764 3.7959 293.596 3.8623 293.401 3.8623ZM298.395 11.6377C297.782 11.6377 297.253 11.4932 296.81 11.2041C296.367 10.9131 296.025 10.5137 295.785 10.0059C295.546 9.49609 295.427 8.91504 295.427 8.2627C295.427 7.59668 295.55 7.00879 295.796 6.49902C296.043 5.98926 296.386 5.59082 296.828 5.30371C297.269 5.01465 297.786 4.87012 298.378 4.87012C298.838 4.87012 299.253 4.95508 299.623 5.125C299.992 5.29492 300.294 5.5332 300.528 5.83984C300.764 6.14648 300.911 6.50488 300.967 6.91504H299.962C299.886 6.61621 299.716 6.35156 299.453 6.12109C299.191 5.88867 298.838 5.77246 298.395 5.77246C298.003 5.77246 297.659 5.87402 297.364 6.07715C297.071 6.28027 296.842 6.56641 296.678 6.93555C296.516 7.30273 296.435 7.7334 296.435 8.22754C296.435 8.7334 296.515 9.17383 296.675 9.54883C296.836 9.92383 297.062 10.2148 297.355 10.4219C297.65 10.6289 297.997 10.7324 298.395 10.7324C298.657 10.7324 298.894 10.6875 299.107 10.5977C299.32 10.5059 299.5 10.375 299.646 10.2051C299.794 10.0352 299.9 9.83008 299.962 9.58984H300.967C300.911 9.97656 300.771 10.3242 300.548 10.6328C300.326 10.9414 300.032 11.1865 299.667 11.3682C299.301 11.5479 298.878 11.6377 298.395 11.6377ZM305.179 11.6377C304.548 11.6377 304.004 11.498 303.547 11.2188C303.092 10.9375 302.741 10.5449 302.495 10.041C302.249 9.53711 302.126 8.94922 302.126 8.27734C302.126 7.60742 302.249 7.0166 302.495 6.50488C302.741 5.99121 303.085 5.59082 303.526 5.30371C303.968 5.01465 304.484 4.87012 305.076 4.87012C305.418 4.87012 305.755 4.92676 306.087 5.04004C306.419 5.15332 306.721 5.33691 306.992 5.59082C307.266 5.84473 307.483 6.18066 307.646 6.59863C307.808 7.0166 307.889 7.53125 307.889 8.14258V8.56738H302.844V7.7002H306.866C306.866 7.3291 306.793 6.99902 306.646 6.70996C306.5 6.4209 306.292 6.19238 306.022 6.02441C305.755 5.85645 305.439 5.77246 305.076 5.77246C304.676 5.77246 304.33 5.87109 304.039 6.06836C303.748 6.26563 303.524 6.52246 303.368 6.83887C303.212 7.15332 303.134 7.49121 303.134 7.85254V8.43262C303.134 8.92676 303.22 9.34473 303.392 9.68652C303.563 10.0283 303.803 10.2881 304.109 10.4658C304.416 10.6436 304.772 10.7324 305.179 10.7324C305.442 10.7324 305.682 10.6953 305.896 10.6211C306.111 10.5449 306.297 10.4307 306.453 10.2783C306.609 10.126 306.729 9.93652 306.813 9.70996L307.786 9.98242C307.685 10.3125 307.513 10.6016 307.271 10.8496C307.028 11.0977 306.729 11.291 306.374 11.4297C306.021 11.5684 305.622 11.6377 305.179 11.6377ZM145.007 27.5V18.7725H147.954C148.64 18.7725 149.201 18.8955 149.636 19.1416C150.072 19.3877 150.395 19.7197 150.606 20.1377C150.817 20.5537 150.922 21.0195 150.922 21.5352C150.922 22.0488 150.818 22.5156 150.609 22.9355C150.4 23.3555 150.077 23.6904 149.642 23.9404C149.208 24.1885 148.652 24.3125 147.972 24.3125H145.86V23.375H147.937C148.406 23.375 148.782 23.2939 149.065 23.1318C149.35 22.9697 149.557 22.751 149.686 22.4756C149.817 22.1982 149.882 21.8848 149.882 21.5352C149.882 21.1855 149.817 20.873 149.686 20.5977C149.557 20.3223 149.349 20.1055 149.062 19.9473C148.777 19.7891 148.397 19.71 147.922 19.71H146.062V27.5H145.007ZM152.489 27.5V20.9551H153.461V21.9424H153.529C153.648 21.6182 153.864 21.3555 154.176 21.1543C154.489 20.9531 154.841 20.8525 155.234 20.8525C155.308 20.8525 155.4 20.8545 155.509 20.8584C155.62 20.8604 155.704 20.8643 155.761 20.8701V21.8926C155.728 21.8828 155.651 21.8691 155.53 21.8516C155.409 21.834 155.282 21.8252 155.149 21.8252C154.83 21.8252 154.546 21.8916 154.296 22.0244C154.048 22.1553 153.852 22.3369 153.707 22.5693C153.565 22.7998 153.493 23.0625 153.493 23.3574V27.5H152.489ZM156.954 27.5V20.9551H157.959V27.5H156.954ZM157.467 19.8623C157.27 19.8623 157.101 19.7959 156.96 19.6631C156.82 19.5303 156.749 19.3701 156.749 19.1826C156.749 18.9951 156.82 18.835 156.96 18.7021C157.101 18.5674 157.27 18.5 157.467 18.5C157.662 18.5 157.83 18.5674 157.971 18.7021C158.112 18.835 158.182 18.9951 158.182 19.1826C158.182 19.3701 158.112 19.5303 157.971 19.6631C157.83 19.7959 157.662 19.8623 157.467 19.8623ZM165.153 20.9551L162.734 27.5H161.711L159.291 20.9551H160.381L162.189 26.1699H162.256L164.064 20.9551H165.153ZM168.206 27.6523C167.79 27.6523 167.413 27.5742 167.075 27.418C166.737 27.2598 166.468 27.0312 166.269 26.7324C166.07 26.4316 165.97 26.0684 165.97 25.6426C165.97 25.2676 166.045 24.9629 166.193 24.7285C166.341 24.4941 166.539 24.3105 166.785 24.1777C167.033 24.043 167.306 23.9424 167.605 23.876C167.906 23.8096 168.208 23.7559 168.51 23.7148C168.909 23.6641 169.232 23.626 169.48 23.6006C169.73 23.5732 169.912 23.5273 170.025 23.4629C170.14 23.3965 170.198 23.2822 170.198 23.1201V23.085C170.198 22.665 170.084 22.3389 169.855 22.1064C169.627 21.8721 169.281 21.7549 168.818 21.7549C168.338 21.7549 167.961 21.8604 167.687 22.0713C167.416 22.2822 167.224 22.5068 167.113 22.7451L166.158 22.4023C166.33 22.0059 166.558 21.6963 166.843 21.4736C167.129 21.249 167.441 21.0928 167.781 21.0049C168.121 20.915 168.455 20.8701 168.783 20.8701C168.994 20.8701 169.236 20.8955 169.509 20.9463C169.785 20.9951 170.05 21.0967 170.306 21.251C170.564 21.4033 170.778 21.6348 170.948 21.9453C171.12 22.2539 171.206 22.668 171.206 23.1875V27.5H170.198V26.6123H170.148C170.08 26.7549 169.966 26.9072 169.805 27.0693C169.647 27.2314 169.436 27.3691 169.173 27.4824C168.909 27.5957 168.587 27.6523 168.206 27.6523ZM168.358 26.75C168.757 26.75 169.092 26.6719 169.366 26.5156C169.639 26.3594 169.846 26.1582 169.987 25.9121C170.128 25.6641 170.198 25.4033 170.198 25.1299V24.21C170.157 24.2607 170.064 24.3066 169.92 24.3477C169.777 24.3887 169.612 24.4248 169.424 24.4561C169.239 24.4854 169.058 24.5107 168.883 24.5322C168.709 24.5537 168.568 24.5713 168.461 24.585C168.199 24.6201 167.955 24.6758 167.728 24.752C167.504 24.8262 167.322 24.9375 167.183 25.0859C167.047 25.2344 166.978 25.4365 166.978 25.6924C166.978 26.042 167.108 26.3057 167.368 26.4834C167.628 26.6611 167.958 26.75 168.358 26.75ZM175.705 27.6377C175.092 27.6377 174.563 27.4932 174.12 27.2041C173.677 26.9131 173.335 26.5137 173.095 26.0059C172.856 25.4961 172.737 24.915 172.737 24.2627C172.737 23.5967 172.86 23.0088 173.106 22.499C173.353 21.9893 173.696 21.5908 174.138 21.3037C174.579 21.0146 175.096 20.8701 175.687 20.8701C176.148 20.8701 176.563 20.9551 176.933 21.125C177.302 21.2949 177.603 21.5332 177.838 21.8398C178.074 22.1465 178.221 22.5049 178.277 22.915H177.272C177.196 22.6162 177.026 22.3516 176.763 22.1211C176.501 21.8887 176.148 21.7725 175.705 21.7725C175.312 21.7725 174.969 21.874 174.674 22.0771C174.381 22.2803 174.152 22.5664 173.988 22.9355C173.826 23.3027 173.745 23.7334 173.745 24.2275C173.745 24.7334 173.825 25.1738 173.985 25.5488C174.145 25.9238 174.372 26.2148 174.665 26.4219C174.96 26.6289 175.307 26.7324 175.705 26.7324C175.967 26.7324 176.204 26.6875 176.417 26.5977C176.63 26.5059 176.81 26.375 176.956 26.2051C177.104 26.0352 177.21 25.8301 177.272 25.5898H178.277C178.221 25.9766 178.081 26.3242 177.858 26.6328C177.636 26.9414 177.342 27.1865 176.977 27.3682C176.611 27.5479 176.187 27.6377 175.705 27.6377ZM180.391 29.9551C180.221 29.9551 180.069 29.9414 179.934 29.9141C179.801 29.8867 179.709 29.8604 179.659 29.835L179.914 28.9502C180.158 29.0127 180.373 29.0352 180.561 29.0176C180.748 29 180.915 28.916 181.062 28.7656C181.208 28.6172 181.343 28.377 181.466 28.0449L181.654 27.5352L179.234 20.9551H180.324L182.131 26.1699H182.199L184.006 20.9551H185.096L182.319 28.4551C182.194 28.793 182.039 29.0732 181.853 29.2959C181.669 29.5186 181.456 29.6836 181.211 29.791C180.969 29.9004 180.696 29.9551 180.391 29.9551ZM189.938 27.5V18.7725H192.885C193.571 18.7725 194.131 18.8955 194.567 19.1416C195.002 19.3877 195.326 19.7197 195.536 20.1377C195.747 20.5537 195.853 21.0195 195.853 21.5352C195.853 22.0488 195.748 22.5156 195.539 22.9355C195.33 23.3555 195.008 23.6904 194.573 23.9404C194.139 24.1885 193.582 24.3125 192.903 24.3125H190.79V23.375H192.868C193.336 23.375 193.712 23.2939 193.995 23.1318C194.281 22.9697 194.488 22.751 194.617 22.4756C194.747 22.1982 194.813 21.8848 194.813 21.5352C194.813 21.1855 194.747 20.873 194.617 20.5977C194.488 20.3223 194.28 20.1055 193.993 19.9473C193.707 19.7891 193.327 19.71 192.853 19.71H190.993V27.5H189.938ZM200.011 27.6377C199.419 27.6377 198.901 27.4971 198.456 27.2158C198.012 26.9346 197.666 26.541 197.416 26.0352C197.167 25.5293 197.043 24.9385 197.043 24.2627C197.043 23.5791 197.167 22.9834 197.416 22.4756C197.666 21.9678 198.012 21.5732 198.456 21.292C198.901 21.0107 199.419 20.8701 200.011 20.8701C200.601 20.8701 201.119 21.0107 201.564 21.292C202.009 21.5732 202.356 21.9678 202.604 22.4756C202.852 22.9834 202.976 23.5791 202.976 24.2627C202.976 24.9385 202.852 25.5293 202.604 26.0352C202.356 26.541 202.009 26.9346 201.564 27.2158C201.119 27.4971 200.601 27.6377 200.011 27.6377ZM200.011 26.7324C200.46 26.7324 200.83 26.6182 201.119 26.3896C201.408 26.1592 201.622 25.8564 201.76 25.4814C201.901 25.1064 201.971 24.7002 201.971 24.2627C201.971 23.8252 201.901 23.418 201.76 23.041C201.622 22.6621 201.408 22.3564 201.119 22.124C200.83 21.8896 200.46 21.7725 200.011 21.7725C199.562 21.7725 199.192 21.8896 198.901 22.124C198.612 22.3564 198.398 22.6621 198.259 23.041C198.121 23.418 198.051 23.8252 198.051 24.2627C198.051 24.7002 198.121 25.1064 198.259 25.4814C198.398 25.8564 198.612 26.1592 198.901 26.3896C199.192 26.6182 199.562 26.7324 200.011 26.7324ZM205.515 18.7725V27.5H204.51V18.7725H205.515ZM207.357 27.5V20.9551H208.361V27.5H207.357ZM207.869 19.8623C207.672 19.8623 207.503 19.7959 207.362 19.6631C207.222 19.5303 207.151 19.3701 207.151 19.1826C207.151 18.9951 207.222 18.835 207.362 18.7021C207.503 18.5674 207.672 18.5 207.869 18.5C208.065 18.5 208.232 18.5674 208.373 18.7021C208.514 18.835 208.584 18.9951 208.584 19.1826C208.584 19.3701 208.514 19.5303 208.373 19.6631C208.232 19.7959 208.065 19.8623 207.869 19.8623ZM212.863 27.6377C212.25 27.6377 211.722 27.4932 211.278 27.2041C210.835 26.9131 210.493 26.5137 210.253 26.0059C210.015 25.4961 209.895 24.915 209.895 24.2627C209.895 23.5967 210.018 23.0088 210.265 22.499C210.511 21.9893 210.854 21.5908 211.296 21.3037C211.737 21.0146 212.254 20.8701 212.846 20.8701C213.307 20.8701 213.722 20.9551 214.091 21.125C214.46 21.2949 214.762 21.5332 214.996 21.8398C215.232 22.1465 215.379 22.5049 215.435 22.915H214.431C214.354 22.6162 214.184 22.3516 213.921 22.1211C213.659 21.8887 213.307 21.7725 212.863 21.7725C212.471 21.7725 212.127 21.874 211.832 22.0771C211.539 22.2803 211.31 22.5664 211.146 22.9355C210.984 23.3027 210.903 23.7334 210.903 24.2275C210.903 24.7334 210.983 25.1738 211.143 25.5488C211.304 25.9238 211.53 26.2148 211.823 26.4219C212.118 26.6289 212.465 26.7324 212.863 26.7324C213.125 26.7324 213.362 26.6875 213.575 26.5977C213.788 26.5059 213.968 26.375 214.114 26.2051C214.263 26.0352 214.368 25.8301 214.431 25.5898H215.435C215.379 25.9766 215.239 26.3242 215.016 26.6328C214.794 26.9414 214.5 27.1865 214.135 27.3682C213.769 27.5479 213.346 27.6377 212.863 27.6377ZM217.549 29.9551C217.379 29.9551 217.227 29.9414 217.092 29.9141C216.959 29.8867 216.868 29.8604 216.817 29.835L217.072 28.9502C217.316 29.0127 217.532 29.0352 217.719 29.0176C217.907 29 218.074 28.916 218.22 28.7656C218.367 28.6172 218.501 28.377 218.624 28.0449L218.812 27.5352L216.392 20.9551H217.482L219.289 26.1699H219.357L221.164 20.9551H222.254L219.477 28.4551C219.352 28.793 219.197 29.0732 219.011 29.2959C218.827 29.5186 218.614 29.6836 218.369 29.791C218.127 29.9004 217.854 29.9551 217.549 29.9551Z" fill="#79A8D4"/>
</svg>
