<svg width="40" height="8" viewBox="0 0 40 8" fill="none" xmlns="http://www.w3.org/2000/svg">
<g opacity="0.6">
<path d="M4 0C1.79086 0 0 1.79086 0 4V4.006C0 6.21514 1.78486 8 3.994 8H4C6.20914 8 8 6.21514 8 4.006V4C8 1.79086 6.21514 0 4.006 0H4Z" fill="#79A8D4"/>
</g>
<g opacity="0.6">
<path d="M20 0C17.7909 0 16 1.79086 16 4V4.006C16 6.21514 17.7849 8 19.994 8H20C22.2091 8 24 6.21514 24 4.006V4C24 1.79086 22.2151 0 20.006 0H20Z" fill="#79A8D4"/>
</g>
<g opacity="0.6">
<path d="M36 0C33.7909 0 32 1.79086 32 4V4.006C32 6.21514 33.7849 8 35.994 8H36C38.2091 8 40 6.21514 40 4.006V4C40 1.79086 38.2151 0 36.006 0H36Z" fill="#79A8D4"/>
</g>
</svg>
